<svg xmlns="http://www.w3.org/2000/svg" viewBox="0 0 512 512" width="512" height="512">
	<style type="text/css">
		tspan { white-space:pre }
		.shp0 { fill: #ebebeb } 
	</style>
	<path id="Layer" class="shp0" d="M488 352L448 352L448 96C448 78.33 433.67 64 416 64L192 64L192 160L352 160L352 488C352 501.25 362.75 512 376 512L424 512C437.25 512 448 501.25 448 488L448 448L488 448C501.25 448 512 437.25 512 424L512 376C512 362.74 501.25 352 488 352ZM160 24C160 10.74 149.25 0 136 0L88 0C74.75 0 64 10.74 64 24L64 64L24 64C10.75 64 0 74.74 0 88L0 136C0 149.25 10.75 160 24 160L64 160L64 416C64 433.67 78.33 448 96 448L320 448L320 352L160 352L160 24Z" />
</svg>