<svg xmlns="http://www.w3.org/2000/svg" viewBox="0 0 512 512" width="512" height="512">
	<style>
		tspan { white-space:pre }
		.shp0 { fill: #ebebeb } 
	</style>
	<path id="Layer" class="shp0" d="M362.03 214.27L349.79 96L392 96C405.25 96 416 85.25 416 72L416 24C416 10.75 405.25 0 392 0L120 0C106.75 0 96 10.75 96 24L96 72C96 85.25 106.75 96 120 96L162.21 96L149.97 214.27C101.47 236.82 64 277.26 64 328C64 341.25 74.75 352 88 352L224 352L224 456.01C224 457.25 224.29 458.47 224.85 459.58L248.85 507.59C251.79 513.47 260.21 513.48 263.16 507.59L287.16 459.58C287.29 459.31 287.42 459.02 287.52 458.73C287.63 458.44 287.72 458.15 287.79 457.85C287.86 457.54 287.91 457.24 287.95 456.93C287.98 456.63 288 456.32 288 456.01L288 352L424 352C437.26 352 448 341.25 448 328C448 276.82 410.02 236.58 362.03 214.27L362.03 214.27Z" />
</svg>