<svg xmlns="http://www.w3.org/2000/svg" viewBox="0 0 512 512" width="512" height="512">
	<style type="text/css">
		tspan { white-space:pre }
		.shp0 { fill: #ebebeb } 
	</style>
	<path id="Layer" class="shp0" d="M195.81 347.68L120.84 255.4L90.99 285.24C81.62 294.62 66.42 294.62 57.05 285.24L23.11 251.3C13.74 241.93 13.74 226.74 23.11 217.36L215.44 25.03C224.81 15.66 240.01 15.66 249.38 25.03L283.32 58.97C292.7 68.34 292.7 83.54 283.32 92.91L253.48 122.76L345.76 197.73C396 179.38 451.09 181.48 486.97 217.36C496.34 226.74 496.34 241.93 486.97 251.3L390.8 347.47L464.35 421.01C465.23 421.89 465.89 422.96 466.28 424.14L483.25 475.05C485.33 481.29 479.38 487.26 473.13 485.17L422.22 468.2C421.93 468.1 421.64 467.99 421.36 467.86C421.08 467.73 420.81 467.58 420.54 467.42C420.28 467.26 420.03 467.08 419.78 466.89C419.54 466.69 419.31 466.49 419.09 466.27L345.55 392.73L249.38 488.89C240.01 498.26 224.81 498.26 215.44 488.89C179.25 452.7 177.66 397.39 195.81 347.68L195.81 347.68Z" />
</svg>